<svg xmlns="http://www.w3.org/2000/svg" viewBox="0 0 45 45"><title>Artboard 2 copy 2icon</title><g id="Layer_2" data-name="Layer 2"><path d="M22.51,41.95C19.86,41.95,8,26.33,8,18.62a14.5,14.5,0,0,1,29,0C37,26.24,24.91,41.95,22.51,41.95Zm0-29.85A6.52,6.52,0,1,0,29,18.62,6.53,6.53,0,0,0,22.51,12.1Z" style="fill:#f4b21e"/><path d="M22.51,4.61a14,14,0,0,1,14,14c0,7.73-12.18,22.83-14,22.83-2.06,0-14-15.09-14-22.83a14,14,0,0,1,14-14m0,21a7,7,0,1,0-7-7,7,7,0,0,0,7,7m0-22a15,15,0,0,0-15,15c0,4.8,4,11.38,6.4,14.88.25.37,6.15,8.95,8.6,8.95S30.77,33.87,31,33.5c2.43-3.51,6.49-10.12,6.49-14.88a15,15,0,0,0-15-15Zm0,21a6,6,0,1,1,6-6,6,6,0,0,1-6,6Z" style="fill:#fff"/></g></svg>