<svg xmlns="http://www.w3.org/2000/svg" viewBox="0 0 45 45"><title>Artboard 2icon</title><g id="Layer_2" data-name="Layer 2"><polygon points="34.57 18.97 28.21 16.71 27.99 16.64 22.13 18.97 16.28 16.64 16.25 16.65 9.69 18.97 7.82 41.39 15.22 39.11 15.4 39.05 22.13 41.39 28.87 39.05 28.95 39.08 36.44 41.39 34.57 18.97" style="fill:#fff;stroke:#fff;stroke-linecap:round;stroke-linejoin:round;stroke-width:3px"/><g id="_Group_" data-name="&lt;Group&gt;"><polygon points="34.57 18.97 36.44 41.39 28.95 39.08 28.21 16.71 34.57 18.97" style="fill:#c68709"/><polygon points="28.21 16.71 28.95 39.08 28.87 39.05 22.13 41.39 22.13 18.97 27.99 16.63 28.21 16.71" style="fill:#f4b21e"/><polygon points="22.13 18.97 22.13 41.39 15.4 39.05 15.22 39.1 16.25 16.64 16.28 16.63 22.13 18.97" style="fill:#c68709"/><polygon points="16.25 16.64 15.22 39.1 7.82 41.39 9.69 18.97 16.25 16.64" style="fill:#f4b21e"/></g><path d="M22.51,26.86c-1.66,0-9.11-9.72-9.11-14.53a9.11,9.11,0,1,1,18.21,0C31.62,17.14,24.17,26.86,22.51,26.86Zm0-18.34a3.81,3.81,0,1,0,3.81,3.81A3.82,3.82,0,0,0,22.51,8.52Z" style="fill:#f4b21e"/><path d="M22.51,3.73a8.61,8.61,0,0,1,8.61,8.61c0,4.75-7.49,14-8.61,14s-8.61-9.28-8.61-14a8.61,8.61,0,0,1,8.61-8.61m0,12.92a4.31,4.31,0,1,0-4.31-4.31,4.31,4.31,0,0,0,4.31,4.31m0-13.92a9.62,9.62,0,0,0-9.61,9.61c0,4.92,7.4,15,9.61,15s9.61-10.21,9.61-15a9.62,9.62,0,0,0-9.61-9.61Zm0,12.92a3.31,3.31,0,1,1,3.31-3.31,3.32,3.32,0,0,1-3.31,3.31Z" style="fill:#fff"/></g></svg>