<svg xmlns="http://www.w3.org/2000/svg" viewBox="0 0 41.37 45"><title>Artboard 2 copyicon</title><g id="Layer_2" data-name="Layer 2"><path d="M21,42.18A19.08,19.08,0,1,1,40.07,23.09,19.1,19.1,0,0,1,21,42.18Z" style="fill:#f4b21e"/><path d="M21,4.51A18.58,18.58,0,1,1,2.41,23.09,18.58,18.58,0,0,1,21,4.51m0-1A19.58,19.58,0,1,0,40.57,23.09,19.6,19.6,0,0,0,21,3.51Z" style="fill:#fff"/><path d="M31.25,20.93H23.15V12.84a2.17,2.17,0,0,0-4.33,0v8.09H10.73a2.17,2.17,0,0,0,0,4.33h8.09v8.09a2.17,2.17,0,1,0,4.33,0V25.26h8.09a2.17,2.17,0,0,0,0-4.33Z" style="fill:#fff"/></g></svg>