<svg xmlns="http://www.w3.org/2000/svg" viewBox="0 0 120 123.38"><title>Artboard 5 copyicon</title><g id="Layer_4" data-name="Layer 4"><circle cx="60.05" cy="62.62" r="56.85" style="fill:#192432;opacity:0.9500000000000001"/><path d="M73.07,75.82c-.35.48-.69,1-1.05,1.42-2,2.6-4.6,4.78-6.74,7.58a13.85,13.85,0,0,0-2.55,4.8,10.85,10.85,0,0,0-.25,1.42c0,.48,0,1,0,1.46s.18,1,.3,1.43l.49,1.22a18.17,18.17,0,0,0,1.21,2.62,16.41,16.41,0,0,0,2,2.83,10.69,10.69,0,0,0,6,3.54,10.84,10.84,0,0,0,2.72.16c.68,1.1-2.69,2.83-2.63,2.86,6.26-.88,11.11-6,11.11-6a1.54,1.54,0,0,1-.29.14c.56-.36,1.12-.73,1.66-1.11l-.39-.57a24.46,24.46,0,0,1-5.76,2.82,14.3,14.3,0,0,1-3.07.62,9.93,9.93,0,0,1-3-.24,9.09,9.09,0,0,1-4.92-3.31,15.34,15.34,0,0,1-2.63-5.15h0l0-.11L65.14,94h0a5.79,5.79,0,0,1-.08-3.83,11.69,11.69,0,0,1,2.3-3.82c1-1.22,2.14-2.39,3.33-3.58.59-.6,1.2-1.2,1.81-1.85a26.89,26.89,0,0,0,1.76-2q.77-1,1.5-2a24.65,24.65,0,0,0,14.94-3.51,24.37,24.37,0,0,0,10.75-13.64,19.3,19.3,0,0,0,.57-2.19c.17-.73.2-1.51.3-2.26s0-1.52,0-2.28c-.06-.6-.08-1.21-.16-1.81a17.28,17.28,0,0,0,.66-2.19,19.62,19.62,0,0,0,.45-2.68,16.27,16.27,0,0,0-.36-5.42,11,11,0,0,0-.39-1.31L102,38.43a13.55,13.55,0,0,0-1.45-2.3,9.77,9.77,0,0,0-.86-1l-1-.93a7.44,7.44,0,0,0-1-.83l-1.08-.77-.48.72,1,.8a6.73,6.73,0,0,1,.93.83l.85.91a8.71,8.71,0,0,1,.73,1A12.3,12.3,0,0,1,100.8,39l.39,1.16a9.57,9.57,0,0,1,.27,1.19,14.61,14.61,0,0,1,0,4.88q-.11.64-.25,1.28a18.93,18.93,0,0,0-2.72-4.84,19.51,19.51,0,0,0-3.09-3.07c-.55-.46-1.16-.83-1.73-1.24s-1.23-.68-1.84-1a26,26,0,0,0-7.75-2.43l-.2.62a31.25,31.25,0,0,1,6.94,3.37,19.12,19.12,0,0,1,5.43,5.32,15.77,15.77,0,0,1,2.54,7,16.9,16.9,0,0,1-.92,7.43q-.16.46-.35.92C95.58,54.43,85.91,56.8,86,56.92c7.38-1.46,8.92,3.6,9.15,6.9a24.38,24.38,0,0,1-6.68,6.38,28,28,0,0,1-10.94,4.1c.86-1.35,1.67-2.75,2.4-4.19a42.29,42.29,0,0,0,3.51-10,53.4,53.4,0,0,0,1.07-10.46,40.3,40.3,0,0,0-1.28-10.48,24.32,24.32,0,0,0-2-5,16.33,16.33,0,0,0-3.37-4.32,13.22,13.22,0,0,0-10-3v.72a14.13,14.13,0,0,1,4.84.84,11.46,11.46,0,0,1,4.09,2.6,14.62,14.62,0,0,1,2.78,4,23,23,0,0,1,1.57,4.69A40,40,0,0,1,82,49.58a52.29,52.29,0,0,1-1.24,9.92,40.71,40.71,0,0,1-3.38,9.34,46.34,46.34,0,0,1-2.78,4.75" style="fill:#fff"/><path d="M54,84.44c-2.09-3-4.69-5.25-6.44-7.8a47.24,47.24,0,0,1-8.26-17.42A52.59,52.59,0,0,1,38,49.56a41.39,41.39,0,0,1,.57-9.67,17.46,17.46,0,0,1,3.79-8.48,10.92,10.92,0,0,1,3.75-2.74,15.37,15.37,0,0,1,4.72-1.17v-.72a14.89,14.89,0,0,0-5.12.79,12.32,12.32,0,0,0-4.45,2.72,15.56,15.56,0,0,0-3,4.23,24,24,0,0,0-1.73,4.88,41.18,41.18,0,0,0-1,10.21,53.62,53.62,0,0,0,1.1,10.2,42.24,42.24,0,0,0,3.33,9.75,47.18,47.18,0,0,0,2.4,4.36c-1.67-.58-3.27-1.19-4.8-1.9a16.2,16.2,0,0,1-1.61-.82c-.53-.28-1.07-.52-1.56-.85-1-.6-2-1.28-2.92-1.95-.45-.37-.93-.69-1.35-1.08s-.87-.76-1.28-1.15a22.05,22.05,0,0,1-2.32-2.5l-.13-.17c.31-3.3,2-8,9.12-6.58.12-.12-9.78-2.55-11.56,2.82a16.41,16.41,0,0,1-.8-1.84,14.89,14.89,0,0,1,.78-12.77c.25-.51.61-1,.91-1.47s.72-.92,1.08-1.4a26.31,26.31,0,0,1,2.59-2.55,40,40,0,0,1,6.38-4.22l-.2-.62a32,32,0,0,0-7.2,3.28,20.05,20.05,0,0,0-5.81,5.44,16.9,16.9,0,0,0-2.9,7.48,18.2,18.2,0,0,0,.8,8,24.71,24.71,0,0,0,9.7,12.59,30.66,30.66,0,0,0,14.95,5.1c.36.52.73,1,1.1,1.55a41.72,41.72,0,0,0,3.36,3.92A45.83,45.83,0,0,1,51.91,86,11.93,11.93,0,0,1,54,90.13a9,9,0,0,1,.17,1.08c0,.36,0,.71,0,1.07l-.24,1-.42,1,.07,0a15.35,15.35,0,0,1-2.65,5.25A9.09,9.09,0,0,1,46,102.92a9.93,9.93,0,0,1-3,.24,14.29,14.29,0,0,1-3.07-.62,24.47,24.47,0,0,1-5.76-2.82l-.39.57c.54.39,1.09.76,1.66,1.11a1.55,1.55,0,0,1-.29-.14s4.85,5.16,11.11,6c.06,0-3.31-1.76-2.63-2.86a10.84,10.84,0,0,0,2.72-.16,10.69,10.69,0,0,0,6-3.54,16.41,16.41,0,0,0,2-2.83,17.42,17.42,0,0,0,1.41-3.2h0L56,94c.15-.47.28-1,.4-1.44A15,15,0,0,0,56.54,91a11.23,11.23,0,0,0-.18-1.48A14.52,14.52,0,0,0,54,84.44Z" style="fill:#fff"/><path d="M36.4,33.17a1.06,1.06,0,0,0,.52-.25c.51-.44,1.52-2.35,2.5-3.15-1.83,1.05-7.58,4.19-8.89,2.8C29,30.9,36.24,20.88,36.24,20.88s-7.67,4.44-9.14,15.69c.58-.4,1.23-.68,1.84-1A25.79,25.79,0,0,1,36.4,33.17Z" style="fill:#fff"/><path d="M39.42,29.77l.56-.33A1.71,1.71,0,0,0,39.42,29.77Z" style="fill:#fff"/><path d="M84.9,32.92a1.06,1.06,0,0,0,.52.25,25.79,25.79,0,0,1,7.45,2.38c.61.34,1.25.62,1.84,1-1.47-11.25-9.14-15.69-9.14-15.69s7.27,10,5.71,11.69C90,34,84.23,30.82,82.4,29.77,83.38,30.57,84.39,32.48,84.9,32.92Z" style="fill:#fff"/><path d="M81.84,29.44l.56.33A1.71,1.71,0,0,0,81.84,29.44Z" style="fill:#fff"/></g></svg>