<svg xmlns="http://www.w3.org/2000/svg" xmlns:xlink="http://www.w3.org/1999/xlink" viewBox="0 0 662.03 680.69"><defs><linearGradient id="linear-gradient" x1="505.11" y1="266.36" x2="453.42" y2="404.2" gradientUnits="userSpaceOnUse"><stop offset="0" stop-color="#fff"/><stop offset="1" stop-color="#f4b21e"/></linearGradient><linearGradient id="linear-gradient-2" x1="149.03" y1="311.57" x2="206.02" y2="388.44" xlink:href="#linear-gradient"/><linearGradient id="linear-gradient-3" x1="167.55" y1="161.21" x2="153.48" y2="179.56" xlink:href="#linear-gradient"/><linearGradient id="linear-gradient-4" x1="509.58" y1="174.29" x2="519.9" y2="174.29" xlink:href="#linear-gradient"/></defs><title>Artboard 5icon-map</title><g id="Layer_4" data-name="Layer 4"><circle cx="331.06" cy="341.28" r="323.06" style="fill:none;stroke:#f4b21e;stroke-miterlimit:10;stroke-width:6px"/><path d="M574.69,218.46c-.75-2.49-1.14-5.06-2.19-7.45l-2.92-7.2c-2.58-4.48-4.81-9.19-8.23-13.07-1.66-2-3-4.18-4.92-5.89l-5.53-5.28a42.31,42.31,0,0,0-6-4.69l-6.15-4.4-2.72,4.1,5.55,4.52a38.18,38.18,0,0,1,5.31,4.73l4.81,5.19c1.67,1.67,2.75,3.8,4.16,5.67,2.91,3.69,4.62,8.1,6.7,12.21l2.2,6.6c.82,2.16,1,4.53,1.54,6.77a83,83,0,0,1,.12,27.71q-.6,3.66-1.44,7.27a107.56,107.56,0,0,0-15.47-27.52A110.8,110.8,0,0,0,532,210.28c-3.11-2.62-6.59-4.72-9.84-7.06s-7-3.89-10.43-5.82a147.6,147.6,0,0,0-44.06-13.82l-1.15,3.51c13.86,4.9,27.29,11,39.43,19.12s22.9,18.19,30.83,30.22a89.64,89.64,0,0,1,14.46,40c1.63,14.22-.57,28.72-5.25,42.22q-.92,2.63-2,5.2c-11-29.13-66-15.69-65.28-15,42-8.29,50.66,20.43,52,39.23a138.55,138.55,0,0,1-37.94,36.26c-18.74,12.22-40.13,19.85-62.18,23.32,4.89-7.69,9.47-15.61,13.61-23.81A240.26,240.26,0,0,0,464.15,327a303.32,303.32,0,0,0,6.07-59.45c-.23-19.87-1.76-40-7.25-59.56a138.2,138.2,0,0,0-11.14-28.55,92.79,92.79,0,0,0-19.17-24.54c-16-13.87-37.51-19.5-57-17.27v4.09a80.28,80.28,0,0,1,27.52,4.75,65.12,65.12,0,0,1,23.26,14.8,83.09,83.09,0,0,1,15.79,22.84,130.82,130.82,0,0,1,8.93,26.66c4.16,18.41,5.2,37.52,4.66,56.47a297.23,297.23,0,0,1-7,56.37,231.31,231.31,0,0,1-19.19,53.1,263.34,263.34,0,0,1-15.79,27c-51.94-28.13-142.51-5.08-143.69-4.15C351.58,390,390.47,407,405.05,416.3c-2,2.71-3.94,5.43-6,8.09-11.1,14.77-26.12,27.17-38.29,43.08-6,7.92-11.67,16.79-14.47,27.3-.81,2.56-1,5.38-1.41,8.07-.2,2.74,0,5.55.07,8.32.51,2.72,1,5.47,1.7,8.15l2.79,7a103.29,103.29,0,0,0,6.86,14.89,93.27,93.27,0,0,0,11.41,16.08c8.7,9.9,20.64,17.71,33.88,20.13a61.58,61.58,0,0,0,15.48.89c3.85,6.23-15.29,16.06-15,16.22,35.58-5,63.11-34.37,63.11-34.37a8.75,8.75,0,0,1-1.64.81c3.2-2,6.35-4.14,9.41-6.33l-2.23-3.26c-10.35,6.57-21.21,12.45-32.72,16a81.21,81.21,0,0,1-17.45,3.54,56.42,56.42,0,0,1-17.26-1.39c-11.18-2.7-20.78-9.74-27.93-18.8a87.17,87.17,0,0,1-14.92-29.28l0,0c-.08-.2-.14-.4-.22-.6s-.2-.65-.29-1l-.06,0a32.89,32.89,0,0,1-.43-21.77c2.44-7.62,7.32-14.86,13.06-21.69S384.73,462.81,391.5,456c3.38-3.4,6.83-6.82,10.28-10.49a152.88,152.88,0,0,0,10-11.59q4.4-5.43,8.53-11.12c28.7,2.8,59-4.35,84.87-19.93a138.49,138.49,0,0,0,61.07-77.49A109.66,109.66,0,0,0,569.45,313c1-4.18,1.13-8.56,1.68-12.81.28-4.31.27-8.66.25-13-.34-3.43-.47-6.86-.91-10.26a98,98,0,0,0,3.73-12.43,111.48,111.48,0,0,0,2.54-15.24A92.45,92.45,0,0,0,574.69,218.46Z" style="fill:#f4b21e"/><path d="M296.62,465.26C284.76,448.47,270,435.44,260,420.91c-21.85-30.39-39.13-63.06-46.94-99A298.83,298.83,0,0,1,205.88,267a235.21,235.21,0,0,1,3.24-54.94c3.46-17.75,9.73-35.09,21.53-48.16A62,62,0,0,1,252,148.36a87.34,87.34,0,0,1,26.83-6.67V137.6a84.61,84.61,0,0,0-29.08,4.51,70,70,0,0,0-25.26,15.47,88.41,88.41,0,0,0-17.27,24,136.6,136.6,0,0,0-9.84,27.71c-4.65,19-6,38.61-5.83,58a304.74,304.74,0,0,0,6.23,58,240,240,0,0,0,18.94,55.39,268,268,0,0,0,13.66,24.8c-9.48-3.28-18.57-6.79-27.26-10.8a92.16,92.16,0,0,1-9.13-4.64c-3-1.6-6.06-3-8.86-4.84-5.77-3.43-11.21-7.26-16.57-11.07-2.55-2.09-5.3-3.91-7.69-6.15s-4.92-4.31-7.25-6.56a125.35,125.35,0,0,1-13.17-14.21c-.25-.32-.5-.65-.75-1,1.77-18.76,11.21-45.41,51.83-37.39.7-.7-55.58-14.47-65.67,16a93.5,93.5,0,0,1-4.56-10.48c-9.1-23.5-8.31-49.86,4.45-72.54,1.43-2.92,3.45-5.52,5.15-8.37s4.09-5.25,6.12-8a149.42,149.42,0,0,1,14.73-14.5c10.81-9,23.15-16.78,36.27-24l-1.15-3.51c-14.22,4.65-28.12,10.59-40.89,18.66s-24.3,18.36-33,30.93a96,96,0,0,0-16.47,42.5c-2.11,15.28-.12,30.92,4.56,45.51,9.46,29.32,29.88,54.31,55.13,71.53,25,17.15,54.78,26.64,84.92,29,2.07,3,4.13,5.9,6.27,8.79,5.76,8,12.65,15.34,19.11,22.3a260.43,260.43,0,0,1,18.39,21.39c5.46,7.37,10.06,15.24,12.06,23.41.63,2,.6,4.09,1,6.12.11,2-.14,4-.14,6.07l-1.35,5.92-2.41,5.71.41.21a87.23,87.23,0,0,1-15.08,29.84c-7.15,9.06-16.75,16.1-27.93,18.8a56.44,56.44,0,0,1-17.26,1.39,81.21,81.21,0,0,1-17.45-3.54c-11.51-3.58-22.37-9.46-32.72-16l-2.23,3.26c3.07,2.19,6.22,4.29,9.41,6.34a8.82,8.82,0,0,1-1.64-.81S217,590.2,252.56,595.23c.32-.16-18.81-10-15-16.22a61.56,61.56,0,0,0,15.48-.89C266.32,575.7,278.27,567.89,287,558a93.21,93.21,0,0,0,11.41-16.08,98.91,98.91,0,0,0,8-18.21l-.07,0,2-4.19c.85-2.66,1.58-5.42,2.29-8.19a85.36,85.36,0,0,0,.51-8.57c-.33-2.79-.35-5.75-1-8.44C307.73,483.22,302.39,473.72,296.62,465.26Z" style="fill:#f4b21e"/><path d="M248.35,285.63c5.48-23.34,8.23-35,13.74-58.16,2.21-.38,3.32-.56,5.53-.91l2.52-10.08c-8.31,1.15-12.46,1.82-20.73,3.34L247.15,230c2.24-.42,3.36-.63,5.6-1-5.52,23.37-8.27,35.09-13.76,58.62C242.72,286.75,244.59,286.37,248.35,285.63Z" style="fill:#f4b21e"/><path d="M271.42,225.95l4.08-.54c-5.59,23.1-8.38,34.69-14,58,3.81-.6,5.71-.88,9.53-1.4,2.91-12.3,4.37-18.45,7.28-30.7,2.6-.31,3.9-.46,6.51-.74-2.92,12.22-4.38,18.34-7.29,30.6,3.85-.47,5.78-.69,9.65-1.08,2.78-11.6,4.16-17.38,6.94-28.94a8.53,8.53,0,0,0,.36-2.47,3.84,3.84,0,0,0-2.44-3.85v-.19a7.08,7.08,0,0,0,4.88-5.36c2-8.29,3.07-12.43,5.12-20.7a5,5,0,0,0,.17-1.14,4.09,4.09,0,0,0-1.18-3,3.48,3.48,0,0,0-2.9-1.08c-9.78.77-14.67,1.28-24.41,2.55ZM285,224.31c2.61-.28,3.92-.41,6.53-.65l-4.1,16.8c-2.61.26-3.91.4-6.51.7Z" style="fill:#f4b21e"/><path d="M314.56,278.07a5.29,5.29,0,0,0,3.16-1.3,5.22,5.22,0,0,0,1.89-2.87C325.75,249,328.82,236.66,335,212c-8.66,0-13,.1-21.63.5A4.87,4.87,0,0,0,310.2,214a6.36,6.36,0,0,0-1.92,3.12c-6.17,24.86-9.25,37.34-15.41,62.4C301.54,278.73,305.88,278.45,314.56,278.07Zm1.83-56c2.58-.1,3.87-.14,6.45-.21-4.5,18.55-6.75,27.85-11.24,46.51-2.66.13-4,.21-6.64.38C309.53,250,311.82,240.71,316.39,222.1Z" style="fill:#f4b21e"/><path d="M327.57,277.68c3.81-.06,5.71-.07,9.52-.06,3-11.86,4.5-17.78,7.49-29.59,1.39,0,3.27.07,5.63.13l6,.15a5.68,5.68,0,0,0,3.46-1.07,6.54,6.54,0,0,0,2.37-4c2.31-9.07,3.46-13.59,5.76-22.63a9.06,9.06,0,0,0-1.67-5.31q-1.67-2.39-3.56-2.5c-9.12-.56-13.69-.73-22.83-.85l-2.36,9.88,4,0C335.85,244.1,333.09,255.27,327.57,277.68Zm23.29-55.61c2.65.09,4,.14,6.62.26l-4,16.06c-2.65-.1-4-.14-6.62-.21Z" style="fill:#f4b21e"/><path d="M359.54,278.33c3.87.16,5.81.27,9.67.51,3-11.69,4.49-17.53,7.48-29.17,2.57.19,3.86.3,6.43.52-3,11.61-4.43,17.42-7.38,29.08,3.8.33,5.69.51,9.48.91,6.53-25.59,9.79-38.32,16.3-63.69-3.88-.51-5.82-.75-9.71-1.18-2.46,10.12-3.7,15.19-6.17,25.34-2.6-.28-3.91-.41-6.51-.65,2.54-10.18,3.81-15.26,6.34-25.41-5.45-.58-8.18-.83-13.64-1.26L369.66,223l3.74.29C367.86,245.21,365.09,256.23,359.54,278.33Z" style="fill:#f4b21e"/><path d="M405.84,217.21c-2.9,11.44-4.36,17.17-7.27,28.65a7.57,7.57,0,0,0-.17,1.21A5.42,5.42,0,0,0,400,250.8a6.36,6.36,0,0,0,3.89,2c3.67.54,5.5.82,9.15,1.43l-4.91,19.08c-5.33-.83-8-1.21-13.33-1.88l-2.43,9.59c9.13,1.11,13.69,1.77,22.77,3.33,6.52-25.17,9.77-37.69,16.26-62.63-3.85-.8-5.77-1.17-9.63-1.89l-6.21,25c-2.59-.44-3.88-.66-6.47-1.07l6.3-25.09C411.55,218.09,409.65,217.78,405.84,217.21Z" style="fill:#f4b21e"/><path d="M196.68,173.91a6,6,0,0,0,3-1.39c2.91-2.52,8.63-13.33,14.22-17.92-10.38,6-43.06,23.81-50.5,15.89-8.88-9.44,32.44-66.4,32.44-66.4s-43.58,25.23-51.92,89.18c3.31-2.27,7-3.89,10.43-5.82A146.52,146.52,0,0,1,196.68,173.91Z" style="fill:#f4b21e"/><path d="M213.87,154.6c2-1.15,3.19-1.87,3.19-1.87A9.69,9.69,0,0,0,213.87,154.6Z" style="fill:#f4b21e"/><path d="M458.08,154.6c5.59,4.58,11.31,15.39,14.22,17.92a6,6,0,0,0,3,1.39,146.52,146.52,0,0,1,42.34,13.54c3.44,1.93,7.12,3.55,10.43,5.82-8.33-64-51.92-89.18-51.92-89.18s41.33,57,32.44,66.4C501.14,178.4,468.47,160.58,458.08,154.6Z" style="fill:#f4b21e"/><path d="M458.08,154.6a9.69,9.69,0,0,0-3.19-1.87S456.08,153.44,458.08,154.6Z" style="fill:#f4b21e"/><path d="M273.16,326.05v2.79h11.63v-2.91l-2.73-.42V314.64a21.62,21.62,0,0,0-.31-3.88A7,7,0,0,0,280.7,308a4.52,4.52,0,0,0-2-1.62,8.37,8.37,0,0,0-3.21-.53,10.31,10.31,0,0,0-2.56.31,12.35,12.35,0,0,0-2.2.78,11.63,11.63,0,0,0-1.79,1,15.66,15.66,0,0,0-1.31,1l.42-2.91-.06-9.43-1.3-1h-.1l-8.28,1v2.53l2.81.55v25.78l-2.43.42v2.91h12v-2.91l-2.61-.42V311.18a5.48,5.48,0,0,1,.68-.42,8,8,0,0,1,1-.43,9.38,9.38,0,0,1,1.13-.34,5,5,0,0,1,1.15-.14,4.13,4.13,0,0,1,1.57.26,2.11,2.11,0,0,1,1,.82,3.72,3.72,0,0,1,.5,1.45,14.2,14.2,0,0,1,.14,2.16v11Z" style="fill:#f4b21e"/><path d="M303.36,328.56a2.92,2.92,0,0,0,2.22.73q.87,0,1.67-.08t1.49-.18c.46-.07.88-.14,1.25-.23l.93-.21v-2.67h-2.12V306.34l-1.07-.55h0l-8.5.47v2.53l2.69.73V324a3.73,3.73,0,0,1-.46.38,4.55,4.55,0,0,1-.74.42,5.73,5.73,0,0,1-1,.34,5.24,5.24,0,0,1-1.26.14,2.76,2.76,0,0,1-2.38-1,5.58,5.58,0,0,1-.7-3.21V306.34l-.91-.55h0l-7.83.55v2.51l1.84.67v11.27a15.35,15.35,0,0,0,.43,3.93,6.3,6.3,0,0,0,1.35,2.64,5.23,5.23,0,0,0,2.35,1.47,11.35,11.35,0,0,0,3.41.45,7.33,7.33,0,0,0,2-.28,9.29,9.29,0,0,0,1.88-.75,10.18,10.18,0,0,0,1.63-1.08,6.75,6.75,0,0,0,1.22-1.26v.67A2.76,2.76,0,0,0,303.36,328.56Z" style="fill:#f4b21e"/><path d="M328.19,325.93v2.91h11.74v-2.91l-2.77-.4V314.66a21.06,21.06,0,0,0-.34-4.05,6.79,6.79,0,0,0-1.11-2.73,4.43,4.43,0,0,0-2-1.53,8.87,8.87,0,0,0-3.14-.48,10.34,10.34,0,0,0-2.35.27,12.9,12.9,0,0,0-2.16.7,12.16,12.16,0,0,0-1.88,1,11,11,0,0,0-1.51,1.18V306.7l-1.11-.91h-.1l-7.79,1v3.32l2.63.79v14.57l-2.49.42v2.91h12.12v-2.91l-2.59-.42V311.34a6.9,6.9,0,0,1,.63-.45,6.68,6.68,0,0,1,.9-.48,7,7,0,0,1,1.1-.39,4.77,4.77,0,0,1,1.23-.16,3.53,3.53,0,0,1,1.44.26,2,2,0,0,1,.91.82,4.08,4.08,0,0,1,.47,1.45,14.2,14.2,0,0,1,.14,2.16v11Z" style="fill:#f4b21e"/><path d="M344.25,326.07a4.23,4.23,0,0,0,.79,1.72,3.68,3.68,0,0,0,1.52,1.11,6.34,6.34,0,0,0,2.4.4h0a13,13,0,0,0,2.51-.24,15.47,15.47,0,0,0,2.27-.62,12.92,12.92,0,0,0,1.95-.88,12,12,0,0,0,1.51-1l-1-2.53h0l-.66.23q-.41.13-.86.24c-.3.07-.61.13-.93.19a5.46,5.46,0,0,1-.91.08h0a2.57,2.57,0,0,1-1-.15,1,1,0,0,1-.53-.62,4.9,4.9,0,0,1-.23-1.37q-.05-.9,0-2.4V309.7h5.4v-3.62H351l-.08-6h-4.05q-.34,1.07-.8,2.2a20.85,20.85,0,0,1-.9,1.95,8.62,8.62,0,0,1-1.58,2.14l-.37.16-.75.31-.77.3-.44.17v2.43H344v14.14A10.14,10.14,0,0,0,344.25,326.07Z" style="fill:#f4b21e"/><path d="M378.33,316.34q.06-1.15,0-2.57-.2-4.05-2.36-6t-6.47-2a12.37,12.37,0,0,0-4.54.79,9.42,9.42,0,0,0-3.46,2.3,10.24,10.24,0,0,0-2.2,3.72,15.2,15.2,0,0,0-.77,5,17.23,17.23,0,0,0,.6,4.69A9.69,9.69,0,0,0,361,326a8.83,8.83,0,0,0,3.38,2.42,12.86,12.86,0,0,0,5,.87,11.45,11.45,0,0,0,2.82-.35,16.08,16.08,0,0,0,2.54-.86,13.66,13.66,0,0,0,2-1.1,7.32,7.32,0,0,0,1.33-1.08L377,323.3q-.45.26-1,.53a9.53,9.53,0,0,1-1.28.5,11.39,11.39,0,0,1-3.52.52,6.56,6.56,0,0,1-2.23-.36,4.14,4.14,0,0,1-1.7-1.15,5.7,5.7,0,0,1-1.13-2,12.29,12.29,0,0,1-.53-3h12.5A13.79,13.79,0,0,0,378.33,316.34Zm-6.7-1.8v.35c0,.12,0,.24,0,.35s0,.18,0,.22h-6a20.47,20.47,0,0,1,.35-3.57,7,7,0,0,1,.73-2.1,2.32,2.32,0,0,1,1-1,3,3,0,0,1,1.2-.25,2,2,0,0,1,1.45.53,3.45,3.45,0,0,1,.83,1.38,8,8,0,0,1,.38,1.87c.06.68.09,1.35.09,2Z" style="fill:#f4b21e"/><path d="M391.67,313.62a8.1,8.1,0,0,1,1-.22c.37-.06.75-.11,1.14-.15a10.55,10.55,0,0,1,1.06-.06,14.73,14.73,0,0,1,2.57.19,3.49,3.49,0,0,1,1.3.41v-7.87a2.88,2.88,0,0,0-.55-.13,7.63,7.63,0,0,0-1,0,4.92,4.92,0,0,0-2.47.65,8.87,8.87,0,0,0-2.06,1.61,11,11,0,0,0-1.53,2,11.63,11.63,0,0,0-.92,1.9h-.1V306.7l-1.11-.91h-.12l-7.37,1v3.32l2.65.79v14.57l-2.65.42v2.91h14.29v-2.79l-4.71-.53V313.87A2.4,2.4,0,0,1,391.67,313.62Z" style="fill:#f4b21e"/><path d="M574.69,218.46c-.75-2.49-1.14-5.06-2.19-7.45l-2.92-7.2c-2.58-4.48-4.81-9.19-8.23-13.07-1.66-2-3-4.18-4.92-5.89l-5.53-5.28a42.31,42.31,0,0,0-6-4.69l-6.15-4.4-2.72,4.1,5.55,4.52a38.18,38.18,0,0,1,5.31,4.73l4.81,5.19c1.67,1.67,2.75,3.8,4.16,5.67,2.91,3.69,4.62,8.1,6.7,12.21l2.2,6.6c.82,2.16,1,4.53,1.54,6.77a83,83,0,0,1,.12,27.71q-.6,3.66-1.44,7.27a107.56,107.56,0,0,0-15.47-27.52A110.8,110.8,0,0,0,532,210.28c-3.11-2.62-6.59-4.72-9.84-7.06s-7-3.89-10.43-5.82a147.6,147.6,0,0,0-44.06-13.82l-1.15,3.51c13.86,4.9,27.29,11,39.43,19.12s22.9,18.19,30.83,30.22a89.64,89.64,0,0,1,14.46,40c1.63,14.22-.57,28.72-5.25,42.22q-.92,2.63-2,5.2c-11-29.13-66-15.69-65.28-15,42-8.29,50.66,20.43,52,39.23a138.55,138.55,0,0,1-37.94,36.26c-18.74,12.22-40.13,19.85-62.18,23.32,4.89-7.69,9.47-15.61,13.61-23.81A240.26,240.26,0,0,0,464.15,327a303.32,303.32,0,0,0,6.07-59.45c-.23-19.87-1.76-40-7.25-59.56a138.2,138.2,0,0,0-11.14-28.55,92.79,92.79,0,0,0-19.17-24.54c-16-13.87-37.51-19.5-57-17.27v4.09a80.28,80.28,0,0,1,27.52,4.75,65.12,65.12,0,0,1,23.26,14.8,83.09,83.09,0,0,1,15.79,22.84,130.82,130.82,0,0,1,8.93,26.66c4.16,18.41,5.2,37.52,4.66,56.47a297.23,297.23,0,0,1-7,56.37,231.31,231.31,0,0,1-19.19,53.1,263.34,263.34,0,0,1-15.79,27c-51.94-28.13-142.51-5.08-143.69-4.15C351.58,390,390.47,407,405.05,416.3c-2,2.71-3.94,5.43-6,8.09-11.1,14.77-26.12,27.17-38.29,43.08-6,7.92-11.67,16.79-14.47,27.3-.81,2.56-1,5.38-1.41,8.07-.2,2.74,0,5.55.07,8.32.51,2.72,1,5.47,1.7,8.15l2.79,7a103.29,103.29,0,0,0,6.86,14.89,93.27,93.27,0,0,0,11.41,16.08c8.7,9.9,20.64,17.71,33.88,20.13a61.58,61.58,0,0,0,15.48.89c3.85,6.23-15.29,16.06-15,16.22,35.58-5,63.11-34.37,63.11-34.37a8.75,8.75,0,0,1-1.64.81c3.2-2,6.35-4.14,9.41-6.33l-2.23-3.26c-10.35,6.57-21.21,12.45-32.72,16a81.21,81.21,0,0,1-17.45,3.54,56.42,56.42,0,0,1-17.26-1.39c-11.18-2.7-20.78-9.74-27.93-18.8a87.17,87.17,0,0,1-14.92-29.28l0,0c-.08-.2-.14-.4-.22-.6s-.2-.65-.29-1l-.06,0a32.89,32.89,0,0,1-.43-21.77c2.44-7.62,7.32-14.86,13.06-21.69S384.73,462.81,391.5,456c3.38-3.4,6.83-6.82,10.28-10.49a152.88,152.88,0,0,0,10-11.59q4.4-5.43,8.53-11.12c28.7,2.8,59-4.35,84.87-19.93a138.49,138.49,0,0,0,61.07-77.49A109.66,109.66,0,0,0,569.45,313c1-4.18,1.13-8.56,1.68-12.81.28-4.31.27-8.66.25-13-.34-3.43-.47-6.86-.91-10.26a98,98,0,0,0,3.73-12.43,111.48,111.48,0,0,0,2.54-15.24A92.45,92.45,0,0,0,574.69,218.46Z" style="fill:#f4b21e"/><path d="M423.49,581.89a9.48,9.48,0,0,0-.41-5.13,88.71,88.71,0,0,0,16-3.36A115.44,115.44,0,0,1,423.49,581.89Zm-71-64.44c-.55-2.28-1-4.61-1.44-6.92,0-.68,0-1.35-.06-2-.06-1.75-.12-3.42,0-5,.14-.85.25-1.71.37-2.57a27,27,0,0,1,.8-4.38c2.84-10.61,8.7-19.16,13.51-25.45,5.89-7.69,12.62-14.71,19.14-21.48s13.42-14,19.18-21.63c1.82-2.37,3.63-4.84,5.43-7.32l.61-.84a6.07,6.07,0,0,0-1.64-8.7c-5.82-3.72-15.41-8.66-29.76-12.76,12.53,2.17,23.36,5.71,32.37,10.6a6.07,6.07,0,0,0,8-2A267.64,267.64,0,0,0,435,379.39a237.47,237.47,0,0,0,19.68-54.45,303.59,303.59,0,0,0,7.2-57.55c.6-21.58-.9-40.26-4.6-57.08,4.45,16.16,6.56,33.86,6.83,57.27a298.41,298.41,0,0,1-5.95,58.15,233.65,233.65,0,0,1-19.41,55.39c-3.89,7.7-8.25,15.32-13.32,23.3a6.08,6.08,0,0,0,6.07,9.26c23.94-3.77,45.66-11.92,64.55-24.24a145.27,145.27,0,0,0,39.59-37.85,6.08,6.08,0,0,0,1.09-3.92c-1-14.58-5.5-26.08-12.91-34,6.49,2.11,12,5.86,14.46,12.32a6.07,6.07,0,0,0,5.61,3.92H544a6.08,6.08,0,0,0,5.63-3.8q1.1-2.71,2.07-5.48c5.26-15.17,7.18-30.69,5.55-44.91a95.72,95.72,0,0,0-15.43-42.68,108.37,108.37,0,0,0-21.35-23.61l1.6,1.09a72.47,72.47,0,0,1,6,4.37,103.73,103.73,0,0,1,16.7,16.54,100.94,100.94,0,0,1,14.57,25.93,6.07,6.07,0,0,0,5.68,3.92h.41a6.06,6.06,0,0,0,3.58-1.48q-.34,1.65-.73,3.24a92.11,92.11,0,0,1-3.51,11.74,6.07,6.07,0,0,0-.33,2.91c.25,1.93.39,3.87.54,5.81.1,1.32.2,2.65.33,4,0,3.64,0,8.1-.24,12.26-.15,1.06-.29,2.53-.44,4a62.72,62.72,0,0,1-1.1,7.84L563,314a79.58,79.58,0,0,1-2.49,9.42,132.83,132.83,0,0,1-58.45,74.3c-21.09,12.7-45.74,19.68-69.44,19.68h0c-3.94,0-7.88-.19-11.74-.57l-.59,0a6.07,6.07,0,0,0-4.9,2.49c-2.88,3.94-5.61,7.5-8.35,10.89a147.58,147.58,0,0,1-9.65,11.21c-2.87,3.06-5.71,5.9-8.5,8.71l-1.7,1.71c-6.44,6.43-13.24,13.41-19.3,20.76-7.12,8.45-11.76,16.21-14.16,23.69a38.71,38.71,0,0,0,.51,25.69c.06.16.23.57.24.62Z" style="fill:url(#linear-gradient)"/><path d="M296.62,465.26C284.76,448.47,270,435.44,260,420.91c-21.85-30.39-39.13-63.06-46.94-99A298.83,298.83,0,0,1,205.88,267a235.21,235.21,0,0,1,3.24-54.94c3.46-17.75,9.73-35.09,21.53-48.16A62,62,0,0,1,252,148.36a87.34,87.34,0,0,1,26.83-6.67V137.6a84.61,84.61,0,0,0-29.08,4.51,70,70,0,0,0-25.26,15.47,88.41,88.41,0,0,0-17.27,24,136.6,136.6,0,0,0-9.84,27.71c-4.65,19-6,38.61-5.83,58a304.74,304.74,0,0,0,6.23,58,240,240,0,0,0,18.94,55.39,268,268,0,0,0,13.66,24.8c-9.48-3.28-18.57-6.79-27.26-10.8a92.16,92.16,0,0,1-9.13-4.64c-3-1.6-6.06-3-8.86-4.84-5.77-3.43-11.21-7.26-16.57-11.07-2.55-2.09-5.3-3.91-7.69-6.15s-4.92-4.31-7.25-6.56a125.35,125.35,0,0,1-13.17-14.21c-.25-.32-.5-.65-.75-1,1.77-18.76,11.21-45.41,51.83-37.39.7-.7-55.58-14.47-65.67,16a93.5,93.5,0,0,1-4.56-10.48c-9.1-23.5-8.31-49.86,4.45-72.54,1.43-2.92,3.45-5.52,5.15-8.37s4.09-5.25,6.12-8a149.42,149.42,0,0,1,14.73-14.5c10.81-9,23.15-16.78,36.27-24l-1.15-3.51c-14.22,4.65-28.12,10.59-40.89,18.66s-24.3,18.36-33,30.93a96,96,0,0,0-16.47,42.5c-2.11,15.28-.12,30.92,4.56,45.51,9.46,29.32,29.88,54.31,55.13,71.53,25,17.15,54.78,26.64,84.92,29,2.07,3,4.13,5.9,6.27,8.79,5.76,8,12.65,15.34,19.11,22.3a260.43,260.43,0,0,1,18.39,21.39c5.46,7.37,10.06,15.24,12.06,23.41.63,2,.6,4.09,1,6.12.11,2-.14,4-.14,6.07l-1.35,5.92-2.41,5.71.41.21a87.23,87.23,0,0,1-15.08,29.84c-7.15,9.06-16.75,16.1-27.93,18.8a56.44,56.44,0,0,1-17.26,1.39,81.21,81.21,0,0,1-17.45-3.54c-11.51-3.58-22.37-9.46-32.72-16l-2.23,3.26c3.07,2.19,6.22,4.29,9.41,6.34a8.82,8.82,0,0,1-1.64-.81S217,590.2,252.56,595.23c.32-.16-18.81-10-15-16.22a61.56,61.56,0,0,0,15.48-.89C266.32,575.7,278.27,567.89,287,558a93.21,93.21,0,0,0,11.41-16.08,98.91,98.91,0,0,0,8-18.21l-.07,0,2-4.19c.85-2.66,1.58-5.42,2.29-8.19a85.36,85.36,0,0,0,.51-8.57c-.33-2.79-.35-5.75-1-8.44C307.73,483.22,302.39,473.72,296.62,465.26Z" style="fill:#f4b21e"/><path d="M231.19,582.63a115.6,115.6,0,0,1-15.6-8.49,88.52,88.52,0,0,0,16,3.36A9.5,9.5,0,0,0,231.19,582.63Zm69.12-59.88a5.83,5.83,0,0,0,.11-1.09l1.52-3.61a6.22,6.22,0,0,0,.32-1l1.35-5.92a6.18,6.18,0,0,0,.15-1.36c0-.74,0-1.47.08-2.2a41.37,41.37,0,0,0,.06-4.17,6,6,0,0,0-.09-.8c-.12-.62-.18-1.26-.25-1.88a25,25,0,0,0-.9-4.92c-1.85-7.61-6.13-16-13-25.23a264,264,0,0,0-18.81-21.91l-.94-1c-6.11-6.58-12.43-13.39-17.69-20.7-2.16-2.91-4.19-5.82-6.23-8.73a6.08,6.08,0,0,0-4.5-2.57c-30.44-2.37-58.78-12-82-27.94-25.41-17.34-44.16-41.62-52.79-68.39-4.68-14.58-6.17-29.39-4.32-42.81a89.86,89.86,0,0,1,15.43-39.85,102.26,102.26,0,0,1,21.19-22.18c-2.22,2.22-4.42,4.57-6.64,7-.11.13-.22.26-.32.39-.7.93-1.44,1.83-2.17,2.72a55,55,0,0,0-4.23,5.65c-.66,1.1-1.29,2.06-1.92,3a52.65,52.65,0,0,0-3.54,5.92c-13,23.06-14.74,51.39-4.66,77.4a98.21,98.21,0,0,0,4.8,11,6.08,6.08,0,0,0,5.42,3.34l.45,0a6.08,6.08,0,0,0,5.32-4.15c2.31-7,8.06-11,14.85-13.15-7.11,7.54-11.54,18.38-12.83,32a6.07,6.07,0,0,0,1.29,4.35l.77,1a131.82,131.82,0,0,0,13.77,14.86c1.23,1.19,2.61,2.4,4,3.62,1.09,1,2.18,1.92,3.24,2.92a63.8,63.8,0,0,0,5.29,4.33c.92.69,1.83,1.39,2.72,2.12l.33.25c5.89,4.18,11.23,7.91,17,11.34a61.71,61.71,0,0,0,6.57,3.67c.85.43,1.69.86,2.54,1.31a89.17,89.17,0,0,0,8.86,4.52l.57.26a299.25,299.25,0,0,0,27.83,11,6.07,6.07,0,0,0,7.15-8.93,260,260,0,0,1-13.35-24.24,233.75,233.75,0,0,1-18.47-54,299.4,299.4,0,0,1-6.1-56.78c-.22-21.13,1.56-39.35,5.45-55.65a241.68,241.68,0,0,0-3.22,55.74,304.07,304.07,0,0,0,7.35,55.92c7.23,33.25,22.91,66.37,47.93,101.17,5.08,7.4,11.26,14.3,17.79,21.6,6.39,7.13,13,14.51,18.79,22.71,4.56,6.7,10.16,15.9,12.49,26.79a30,30,0,0,1,.69,5c.07.86.14,1.72.24,2.56,0,1.82-.15,3.75-.33,5.8l-.12,1.36c-.6,2.35-1.22,4.69-1.94,7l-1.83,3.8a6.08,6.08,0,0,0-.52,1.66Z" style="fill:url(#linear-gradient-2)"/><path d="M196.68,173.91a6,6,0,0,0,3-1.39c2.91-2.52,8.63-13.33,14.22-17.92-10.38,6-43.06,23.81-50.5,15.89-8.88-9.44,32.44-66.4,32.44-66.4s-43.58,25.23-51.92,89.18c3.31-2.27,7-3.89,10.43-5.82A146.52,146.52,0,0,1,196.68,173.91Z" style="fill:#f4b21e"/><path d="M152.05,181.79a133.47,133.47,0,0,1,4.24-15.07q0,5.1,2.65,7.93a11.4,11.4,0,0,0,3.42,2.48Q157,179.28,152.05,181.79Z" style="fill:url(#linear-gradient-3)"/><path d="M213.87,154.6c2-1.15,3.19-1.87,3.19-1.87A9.69,9.69,0,0,0,213.87,154.6Z" style="fill:#f4b21e"/><path d="M213.87,154.6c2-1.15,3.19-1.87,3.19-1.87A9.69,9.69,0,0,0,213.87,154.6Z" style="fill:#fff"/><path d="M458.08,154.6c5.59,4.58,11.31,15.39,14.22,17.92a6,6,0,0,0,3,1.39,146.52,146.52,0,0,1,42.34,13.54c3.44,1.93,7.12,3.55,10.43,5.82-8.33-64-51.92-89.18-51.92-89.18s41.33,57,32.44,66.4C501.14,178.4,468.47,160.58,458.08,154.6Z" style="fill:#f4b21e"/><path d="M519.9,181.8q-5-2.52-10.32-4.65a11.38,11.38,0,0,0,3.43-2.49q2.64-2.81,2.66-7.86A133.37,133.37,0,0,1,519.9,181.8Z" style="fill:url(#linear-gradient-4)"/><path d="M458.08,154.6a9.69,9.69,0,0,0-3.19-1.87S456.08,153.44,458.08,154.6Z" style="fill:#f4b21e"/><path d="M458.08,154.6a9.69,9.69,0,0,0-3.19-1.87S456.08,153.44,458.08,154.6Z" style="fill:#fff"/></g></svg>