<svg xmlns="http://www.w3.org/2000/svg" viewBox="0 0 45 45"><title>Artboard 2 copy 4icon</title><g id="Layer_2" data-name="Layer 2"><path d="M35.55,3.55H12.07A3.76,3.76,0,0,0,8.49,6.16a3.74,3.74,0,0,0-2.58,3A2.73,2.73,0,0,1,6.46,9,2.35,2.35,0,0,1,7,8.9,2.77,2.77,0,0,1,8.3,7.32h0a2.89,2.89,0,0,1,1-.31l.31,0H33.11a2.77,2.77,0,0,1,2.76,2.77V35.44c0,.11,0,.21,0,.31a2.86,2.86,0,0,1-.33,1A2.78,2.78,0,0,1,34,38.07a1.7,1.7,0,0,0,0-.23V12.15A3.28,3.28,0,0,0,30.7,8.89H7A2.35,2.35,0,0,0,6.46,9a2.73,2.73,0,0,0-.55.18,3.27,3.27,0,0,0-1.95,3V37.84a3.28,3.28,0,0,0,3.26,3.27H30.7a3.27,3.27,0,0,0,3-2h0a3.73,3.73,0,0,0,3-2.57A3.77,3.77,0,0,0,39.31,33V7.31A3.77,3.77,0,0,0,35.55,3.55ZM38.31,33a2.76,2.76,0,0,1-1.44,2.42V9.75A3.76,3.76,0,0,0,33.11,6H9.64a2.8,2.8,0,0,1,2.43-1.43H35.55a2.77,2.77,0,0,1,2.76,2.76Z" style="fill:#f4b21e"/></g></svg>